<?xml version="1.0" standalone="no"?>
<!DOCTYPE svg PUBLIC "-//W3C//DTD SVG 20010904//EN"
 "http://www.w3.org/TR/2001/REC-SVG-20010904/DTD/svg10.dtd">
<svg version="1.0" xmlns="http://www.w3.org/2000/svg"
 width="50.000000pt" height="50.000000pt" viewBox="0 0 50.000000 50.000000"
 preserveAspectRatio="xMidYMid meet">

<g transform="translate(0.000000,50.000000) scale(0.100000,-0.100000)"
fill="#2065d4" stroke="none">
<path d="M23 405 l-21 -56 23 -28 c13 -15 56 -42 94 -60 39 -18 71 -34 71 -36
0 -1 -29 -22 -65 -45 -111 -72 -67 -90 84 -35 l99 36 82 -25 c44 -14 85 -26
91 -26 5 0 9 13 9 29 0 20 -9 37 -29 54 -24 20 -189 90 -340 145 -18 6 -28 20
-35 53 -16 65 -38 62 -63 -6z"/>
<path d="M180 436 c0 -45 14 -75 39 -84 14 -6 35 -13 45 -18 17 -6 16 -1 -8
43 -28 50 -76 88 -76 59z"/>
<path d="M340 130 c0 -5 12 -10 28 -9 24 0 25 1 7 9 -27 12 -35 12 -35 0z"/>
</g>
</svg>
